HIERARCHY
ROOT Hips
{
	OFFSET 0.00000 0.00000 0.00000
	CHANNELS 6 Xposition Yposition Zposition Zrotation Yrotation Xrotation 
	JOINT LHipJoint
	{
		OFFSET 0 0 0
		CHANNELS 3 Zrotation Yrotation Xrotation
		JOINT LeftHip
		{
			OFFSET 1.57338 -1.94743 0.52196
			CHANNELS 3 Zrotation Yrotation Xrotation
			JOINT LeftKnee
			{
				OFFSET 2.60333 -7.15259 0.00000
				CHANNELS 3 Zrotation Yrotation Xrotation
				JOINT LeftAnkle
				{
					OFFSET 2.77855 -7.63400 0.00000
					CHANNELS 3 Zrotation Yrotation Xrotation
					JOINT LeftToe
					{
						OFFSET 0.19847 -0.54529 2.28466
						CHANNELS 3 Zrotation Yrotation Xrotation
						End Site
						{
							OFFSET 0.00000 -0.00000 1.17993
						}
					}
				}
			}
		}
	}
	JOINT RHipJoint
	{
		OFFSET 0 0 0
		CHANNELS 3 Zrotation Yrotation Xrotation
		JOINT RightHip
		{
			OFFSET -1.61527 -1.94743 0.52196
			CHANNELS 3 Zrotation Yrotation Xrotation
			JOINT RightKnee
			{
				OFFSET -2.53829 -6.97390 0.00000
				CHANNELS 3 Zrotation Yrotation Xrotation
				JOINT RightAnkle
				{
					OFFSET -2.80762 -7.71387 0.00000
					CHANNELS 3 Zrotation Yrotation Xrotation
					JOINT RightToe
					{
						OFFSET -0.30536 -0.83898 2.28801
						CHANNELS 3 Zrotation Yrotation Xrotation
						End Site
						{
							OFFSET -0.00000 -0.00000 1.21323
						}
					}
				}
			}
		}
	}
	JOINT lowerback
	{
		OFFSET 0 0 0
		CHANNELS 3 Zrotation Yrotation Xrotation
		JOINT Chest
		{
			OFFSET -0.04381 1.99497 -0.19778
			CHANNELS 3 Zrotation Yrotation Xrotation
			JOINT Chest2
			{
				OFFSET -0.01959 2.01295 -0.04372
				CHANNELS 3 Zrotation Yrotation Xrotation
				JOINT lowerneck
				{
					OFFSET 0 0 0
					CHANNELS 3 Zrotation Yrotation Xrotation
					JOINT Neck
					{
						OFFSET -0.05459 1.76913 0.09708
						CHANNELS 3 Zrotation Yrotation Xrotation
						JOINT Head
						{
							OFFSET 0.09461 1.77368 -0.11172
							CHANNELS 3 Zrotation Yrotation Xrotation
							End Site
							{
								OFFSET 0.03812 1.78157 -0.04834
							}
						}
					}
				}
				JOINT LeftCollar
				{
					OFFSET 0 0 0
					CHANNELS 3 Zrotation Yrotation Xrotation
					JOINT LeftShoulder
					{
						OFFSET 3.50922 1.24034 -0.28866
CHANNELS 3 Zrotation Xrotation Yrotation
						JOINT LeftElbow
						{
OFFSET 0 -5.401880 0.000000
CHANNELS 3 Zrotation Xrotation Yrotation
							JOINT LeftWrist
							{
OFFSET 0 -3.685590 0.000000
CHANNELS 3 Zrotation Xrotation Yrotation
								JOINT lhand
								{
									OFFSET 0 0 0
CHANNELS 3 Zrotation Xrotation Yrotation
									JOINT LFingers
									{
OFFSET 0 -0.617530 0.000000
CHANNELS 3 Zrotation Xrotation Yrotation
										End Site
										{
OFFSET 0 -0.497870 0.000000
										}
									}
								}
								JOINT LThumb
								{
OFFSET 0 0.000000 0.000000
CHANNELS 3 Zrotation Xrotation Yrotation
									End Site
									{
OFFSET 0 -0.505470 0.505470
									}
								}
							}
						}
					}
				}
				JOINT RightCollar
				{
					OFFSET 0 0 0
					CHANNELS 3 Zrotation Yrotation Xrotation
					JOINT RightShoulder
					{
						OFFSET -2.95373 1.39649 -0.27346
CHANNELS 3 Zrotation Xrotation Yrotation
						JOINT RightElbow
						{
OFFSET 0 -6.106700 -0.000000
CHANNELS 3 Zrotation Xrotation Yrotation
							JOINT RightWrist
							{
OFFSET 0 -3.630520 0.000000
CHANNELS 3 Zrotation Xrotation Yrotation
								JOINT rhand
								{
									OFFSET 0 0 0
CHANNELS 3 Zrotation Xrotation Yrotation
									JOINT RFingers
									{
OFFSET 0 -0.583850 0.000000
CHANNELS 3 Zrotation Xrotation Yrotation
										End Site
										{
OFFSET 0 -0.470710 0.000000
										}
									}
								}
								JOINT RThumb
								{
OFFSET 0 0.000000 0.000000
CHANNELS 3 Zrotation Xrotation Yrotation
									End Site
									{
OFFSET 0 -0.477900 0.477900
									}
								}
							}
						}
					}
				}
			}
		}
	}
}
MOTION
Frames: 9
Frame Time: 0.008333333333333333
0.047578 25.764086 -1.844406 2.609996 -3.846320 1.154297 0.000000 0.000000 0.000000 -24.946677 3.932350 9.555300 1.887136 8.626222 24.633402 2.578344 13.469544 29.060379 0.086997 -1.796087 -4.945530 0.000000 0.000000 0.000000 22.787358 6.375065 5.785760 -5.435341 -13.855902 42.667198 -0.886388 -25.412571 23.258529 -0.213208 -2.971813 8.200255 0.447067 1.761268 -4.061883 -0.294373 2.328642 -4.730992 -0.511509 1.145007 -2.558532 -5.658391 -1.487061 -11.558851 5.725848 -1.719335 8.712759 2.569977 -0.682511 4.596485 0.000000 0.000000 0.000000 23.174711 -15.986352 -7.343987 36.745655 -46.005709 16.061165 26.510444 15.319096 -17.972158 0.000000 0.000000 0.000000 -7.125000 0.000000 0.000000 -1.529395 49.898331 0.187225 0.000000 0.000000 0.000000 -25.264774 -35.469324 31.155416 -24.259280 -35.436935 -7.856547 -19.464572 17.834179 -0.185147 0.000000 0.000000 0.000000 7.125000 0.000000 0.000000 5.581829 29.760920 2.083521
0.046287 25.878266 -1.696073 2.128477 -3.828540 1.503250 0.000000 0.000000 0.000000 -24.464151 3.519066 8.955488 1.820333 8.481323 24.186077 2.238758 13.681693 27.156057 0.188894 -2.762068 -7.619627 0.000000 0.000000 0.000000 23.366455 6.672267 5.504093 -5.192310 -13.596282 41.645341 -0.754210 -25.664820 22.653961 -0.196625 -2.855554 7.876804 0.908964 1.724090 -4.495602 -0.175862 2.268124 -4.828291 -0.636343 1.103387 -2.404971 -5.466586 -1.427385 -11.382406 5.662208 -1.672219 8.726236 2.522546 -0.659403 4.566517 0.000000 0.000000 0.000000 22.619887 -14.533295 -5.952647 35.169034 -44.926894 14.934502 25.940663 15.926404 -18.359021 0.000000 0.000000 0.000000 -7.125000 0.000000 0.000000 -2.172193 50.223498 0.279990 0.000000 0.000000 0.000000 -24.773948 -34.414962 30.695548 -24.060749 -35.228322 -7.741615 -19.400345 18.186897 -0.962527 0.000000 0.000000 0.000000 7.125000 0.000000 0.000000 5.587797 28.940247 2.195611
0.044678 25.980709 -1.554656 1.857195 -3.711033 1.694683 0.000000 0.000000 0.000000 -24.143584 3.146510 8.354280 1.780554 8.393138 23.914795 1.884263 13.807755 25.033694 0.370090 -3.864380 -10.700178 0.000000 0.000000 0.000000 23.713491 6.838912 5.371889 -4.934117 -13.307670 40.534035 -0.579083 -25.941367 21.814668 -0.183975 -2.762324 7.617806 1.166207 1.675683 -4.656470 -0.140837 2.195806 -4.876551 -0.741639 1.060245 -2.358685 -5.276177 -1.403109 -11.249544 5.639613 -1.672366 8.685726 2.484376 -0.656405 4.530394 0.000000 0.000000 0.000000 22.134211 -13.190558 -4.660145 33.570590 -43.754824 13.818369 25.792372 16.416540 -18.644635 0.000000 0.000000 0.000000 -7.125000 0.000000 0.000000 -2.381321 50.507431 0.323717 0.000000 0.000000 0.000000 -24.331780 -33.326470 30.119713 -23.890448 -35.048004 -7.643559 -19.226242 18.671695 -1.066945 0.000000 0.000000 0.000000 7.125000 0.000000 0.000000 5.717661 28.830345 2.262152
0.046649 26.075659 -1.415195 1.757383 -3.607172 1.817829 0.000000 0.000000 0.000000 -24.015293 2.767523 7.767837 1.753080 8.331630 23.725948 1.643075 14.125757 23.572887 0.474834 -4.411342 -12.238052 0.000000 0.000000 0.000000 23.807516 6.920157 5.261552 -4.674973 -13.005132 39.392696 -0.450207 -26.003939 21.103223 -0.172331 -2.673512 7.371168 1.251420 1.647019 -4.779924 -0.125106 2.153577 -4.826660 -0.769364 1.038020 -2.236618 -5.154054 -1.410319 -11.283231 5.609748 -1.695610 8.649747 2.453197 -0.665096 4.524976 0.000000 0.000000 0.000000 21.579019 -12.011294 -3.444094 31.981318 -42.515474 12.734171 25.915884 16.785986 -18.909444 0.000000 0.000000 0.000000 -7.125000 0.000000 0.000000 -2.315739 50.815523 0.331427 0.000000 0.000000 0.000000 -24.077190 -32.309060 29.467091 -23.753144 -34.901968 -7.564853 -18.815122 19.134346 -0.493701 0.000000 0.000000 0.000000 7.125000 0.000000 0.000000 6.073021 29.431548 2.312922
0.051521 26.165835 -1.278719 1.647142 -3.520782 1.901709 0.000000 0.000000 0.000000 -23.874196 2.386732 7.195693 1.730027 8.279515 23.566253 1.474517 14.486710 22.551357 0.520605 -4.624128 -12.839507 0.000000 0.000000 0.000000 23.890037 6.982929 5.165694 -4.420997 -12.697993 38.252145 -0.343569 -26.025645 20.489242 -0.174273 -2.687088 7.408938 1.370420 1.615564 -4.814575 -0.100870 2.107644 -4.739388 -0.809550 1.013395 -2.124861 -5.070500 -1.425642 -11.371756 5.603123 -1.722092 8.571210 2.435061 -0.674591 4.516245 0.000000 0.000000 0.000000 21.037544 -10.893302 -2.220351 30.400908 -41.219941 11.678383 26.071346 17.047854 -19.205388 0.000000 0.000000 0.000000 -7.125000 0.000000 0.000000 -2.226201 51.162881 0.338144 0.000000 0.000000 0.000000 -23.866213 -31.358415 28.879777 -23.602456 -34.740794 -7.478880 -18.565607 19.446195 0.155292 0.000000 0.000000 0.000000 7.125000 0.000000 0.000000 6.307998 30.112714 2.304638
0.059100 26.252163 -1.146134 1.439402 -3.454970 1.955890 0.000000 0.000000 0.000000 -23.620781 2.007621 6.637542 1.708157 8.229686 23.413805 1.363848 14.816404 21.889376 0.511967 -4.586254 -12.732194 0.000000 0.000000 0.000000 24.075808 7.060370 5.082902 -4.175850 -12.390558 37.128245 -0.249170 -26.089195 19.966434 -0.196609 -2.855246 7.876086 1.623418 1.570928 -4.721218 -0.055779 2.042624 -4.642737 -0.907608 0.975495 -2.071586 -5.014623 -1.439515 -11.466718 5.638386 -1.744183 8.427624 2.434527 -0.680401 4.488946 0.000000 0.000000 0.000000 20.553945 -9.793153 -0.952111 28.829719 -39.867409 10.652032 26.145199 17.202319 -19.567708 0.000000 0.000000 0.000000 -7.125000 0.000000 0.000000 -2.234216 51.568117 0.361742 0.000000 0.000000 0.000000 -23.630958 -30.473530 28.427620 -23.415308 -34.539783 -7.372445 -18.692933 19.536616 0.589789 0.000000 0.000000 0.000000 7.125000 0.000000 0.000000 6.237556 30.569767 2.209925
0.065827 26.335157 -1.022632 1.176675 -3.403419 1.945433 0.000000 0.000000 0.000000 -23.262995 1.674770 6.052713 1.693240 8.195539 23.309533 1.271130 14.920968 21.282099 0.483888 -4.460046 -12.374847 0.000000 0.000000 0.000000 24.348991 7.231182 5.042539 -3.948441 -12.089296 36.051598 -0.157182 -26.284430 19.539695 -0.227247 -3.065691 8.461865 1.957585 1.534806 -4.277075 -0.044957 1.996265 -4.596817 -1.096555 0.941640 -2.263165 -4.991809 -1.483827 -11.591975 5.779439 -1.814380 8.337465 2.469113 -0.704019 4.487118 0.000000 0.000000 0.000000 20.221898 -8.730253 0.223397 27.260305 -38.412211 9.665910 26.111490 17.341105 -20.238455 0.000000 0.000000 0.000000 -7.125000 0.000000 0.000000 -2.430183 52.286320 0.437277 0.000000 0.000000 0.000000 -23.299350 -29.510954 27.983551 -23.203328 -34.310107 -7.252671 -19.509412 19.530400 0.589424 0.000000 0.000000 0.000000 7.125000 0.000000 0.000000 5.592548 30.578761 1.978274
0.070714 26.412001 -0.906004 0.980615 -3.361938 1.867681 0.000000 0.000000 0.000000 -22.951930 1.379343 5.488267 1.681664 8.168943 23.228307 1.180299 15.122699 20.708372 0.414463 -4.120719 -11.418232 0.000000 0.000000 0.000000 24.552265 7.425185 5.016409 -3.735799 -11.797717 35.023463 -0.065292 -26.435076 19.081245 -0.231161 -3.094002 8.540605 2.179335 1.513305 -3.660967 -0.042075 1.978615 -4.549105 -1.234812 0.923616 -2.552105 -4.981631 -1.541308 -11.721300 5.899140 -1.898133 8.258053 2.498035 -0.735917 4.489937 0.000000 0.000000 0.000000 19.884381 -7.692674 1.268283 25.707399 -36.899061 8.719052 26.020556 17.353578 -20.900778 0.000000 0.000000 0.000000 -7.125000 0.000000 0.000000 -2.692719 52.982591 0.531451 0.000000 0.000000 0.000000 -23.017076 -28.471642 27.490729 -23.058159 -34.152230 -7.170903 -20.265519 19.490585 0.743789 0.000000 0.000000 0.000000 7.125000 0.000000 0.000000 5.003216 30.751636 1.749093
0.073371 26.480496 -0.795662 0.812633 -3.347046 1.725112 0.000000 0.000000 0.000000 -22.649632 1.127201 4.966892 1.668541 8.138600 23.135733 1.113540 15.341693 20.304867 0.334750 -3.714257 -10.274575 0.000000 0.000000 0.000000 24.736723 7.659300 5.018132 -3.538359 -11.517949 34.049050 0.043842 -26.570009 18.500675 -0.218851 -3.010540 8.308246 2.311129 1.501117 -2.911116 -0.025154 1.980635 -4.479696 -1.311408 0.917397 -2.896892 -4.972905 -1.598746 -11.863188 5.990286 -1.977240 8.163367 2.518489 -0.767172 4.489616 0.000000 0.000000 0.000000 19.550210 -6.689941 2.202682 24.163307 -35.322912 7.806532 25.892707 17.247791 -21.498932 0.000000 0.000000 0.000000 -7.125000 0.000000 0.000000 -2.984684 53.600909 0.632704 0.000000 0.000000 0.000000 -22.801092 -27.423899 27.024152 -22.936534 -34.019192 -7.102758 -20.890479 19.360078 1.030982 0.000000 0.000000 0.000000 7.125000 0.000000 0.000000 4.524178 31.065240 1.545982
